<svg width="160" height="56" viewBox="0 0 160 56" fill="none" xmlns="http://www.w3.org/2000/svg">
<path d="M89.8055 26.0415H89V26H80V30H85.6515C84.827 32.3285 82.6115 34 80 34C76.6865 34 74 31.3135 74 28C74 24.6865 76.6865 22 80 22C81.5295 22 82.921 22.577 83.9805 23.5195L86.809 20.691C85.023 19.0265 82.634 18 80 18C74.4775 18 70 22.4775 70 28C70 33.5225 74.4775 38 80 38C85.5225 38 90 33.5225 90 28C90 27.3295 89.931 26.675 89.8055 26.0415Z" fill="#FFC107"/>
<path d="M71.153 23.3455L74.4385 25.755C75.3275 23.554 77.4805 22 80 22C81.5295 22 82.921 22.577 83.9805 23.5195L86.809 20.691C85.023 19.0265 82.634 18 80 18C76.159 18 72.828 20.1685 71.153 23.3455Z" fill="#FF3D00"/>
<path d="M80 38C82.583 38 84.93 37.0115 86.7045 35.404L83.6095 32.785C82.5718 33.5742 81.3037 34.001 80 34C77.399 34 75.1905 32.3415 74.3585 30.027L71.0975 32.5395C72.7525 35.778 76.1135 38 80 38Z" fill="#4CAF50"/>
<path d="M89.8055 26.0415H89V26H80V30H85.6515C85.2571 31.1082 84.5467 32.0766 83.608 32.7855L83.6095 32.7845L86.7045 35.4035C86.4855 35.6025 90 33 90 28C90 27.3295 89.931 26.675 89.8055 26.0415Z" fill="#1976D2"/>
</svg>
