<svg width="19" height="19" viewBox="0 0 19 19" fill="none" xmlns="http://www.w3.org/2000/svg">
<path d="M7.73386 0.8125H8.29245H11.0425H11.601L11.73 1.37109L12.1167 3.39062C12.7469 3.64844 13.3341 4.00651 13.8784 4.46484L15.8979 3.77734L16.4565 3.60547L16.7143 4.07812L18.0893 6.48438L18.3471 6.95703L17.9604 7.34375L16.4135 8.67578C16.4995 9.19141 16.5425 9.54948 16.5425 9.75C16.5425 9.95052 16.4995 10.3086 16.4135 10.8242L17.9604 12.1562L18.3471 12.543L18.0893 13.0156L16.7143 15.4219L16.4565 15.8945L15.8979 15.7227L13.8784 15.0352C13.3341 15.4935 12.7469 15.8516 12.1167 16.1094L11.73 18.1289L11.601 18.6875H11.0425H8.29245H7.73386L7.60495 18.1289L7.21823 16.1094C6.58802 15.8516 6.00078 15.4935 5.45651 15.0352L3.43698 15.7227L2.87839 15.8945L2.62058 15.4219L1.24558 13.0156L0.987763 12.543L1.37448 12.1562L2.92136 10.8242C2.83542 10.3086 2.79245 9.95052 2.79245 9.75C2.79245 9.54948 2.83542 9.19141 2.92136 8.67578L1.37448 7.34375L0.987763 6.95703L1.24558 6.48438L2.62058 4.07812L2.87839 3.60547L3.43698 3.77734L5.45651 4.46484C6.00078 4.00651 6.58802 3.64844 7.21823 3.39062L7.60495 1.37109L7.73386 0.8125ZM8.85104 2.1875L8.50729 3.99219L8.42136 4.37891L8.03464 4.50781C7.2612 4.76562 6.5737 5.16667 5.97214 5.71094L5.62839 5.96875L5.28464 5.88281L3.52292 5.28125L2.70651 6.65625L4.08151 7.85938L4.42526 8.11719L4.29636 8.54688C4.21042 8.91927 4.16745 9.32031 4.16745 9.75C4.16745 10.1797 4.21042 10.5807 4.29636 10.9531L4.42526 11.3828L4.08151 11.6406L2.70651 12.8438L3.52292 14.2188L5.28464 13.6172L5.62839 13.5312L5.97214 13.7891C6.5737 14.3333 7.2612 14.7344 8.03464 14.9922L8.42136 15.1211L8.50729 15.5078L8.85104 17.3125H10.4839L10.8276 15.5078L10.9135 15.1211L11.3003 14.9922C12.0737 14.7344 12.7612 14.3333 13.3628 13.7891L13.7065 13.5312L14.0503 13.6172L15.812 14.2188L16.6284 12.8438L15.2534 11.6406L14.9526 11.3828L15.0385 10.9531C15.1245 10.5807 15.1675 10.1797 15.1675 9.75C15.1675 9.32031 15.1245 8.91927 15.0385 8.54688L14.9096 8.11719L15.2534 7.85938L16.6284 6.65625L15.812 5.28125L14.0503 5.88281L13.7065 5.96875L13.3628 5.71094C12.7612 5.16667 12.0737 4.76562 11.3003 4.50781L10.9135 4.37891L10.8276 3.99219L10.4839 2.1875H8.85104ZM7.21823 7.34375C7.90573 6.65625 8.72214 6.3125 9.66745 6.3125C10.6128 6.3125 11.4148 6.65625 12.0737 7.34375C12.7612 8.0026 13.105 8.80469 13.105 9.75C13.105 10.6953 12.7612 11.5117 12.0737 12.1992C11.4148 12.8581 10.6128 13.1875 9.66745 13.1875C8.72214 13.1875 7.90573 12.8581 7.21823 12.1992C6.55938 11.5117 6.22995 10.6953 6.22995 9.75C6.22995 8.80469 6.55938 8.0026 7.21823 7.34375ZM11.1284 8.28906C10.7273 7.88802 10.2404 7.6875 9.66745 7.6875C9.09453 7.6875 8.60756 7.88802 8.20651 8.28906C7.80547 8.6901 7.60495 9.17708 7.60495 9.75C7.60495 10.3229 7.80547 10.8099 8.20651 11.2109C8.60756 11.612 9.09453 11.8125 9.66745 11.8125C10.2404 11.8125 10.7273 11.612 11.1284 11.2109C11.5294 10.8099 11.73 10.3229 11.73 9.75C11.73 9.17708 11.5294 8.6901 11.1284 8.28906Z" fill="white"/>
</svg>
