<svg width="17" height="16" viewBox="0 0 17 16" fill="none" xmlns="http://www.w3.org/2000/svg">
<path d="M4.71433 0.359375L5.74558 1.39062L2.99558 4.14062L2.47995 4.57031L1.96433 4.14062L0.589326 2.76562L1.62058 1.73438L2.47995 2.63672L4.71433 0.359375ZM7.97995 1.5625H16.9175V2.9375H7.97995V1.5625ZM4.71433 5.85938L5.74558 6.89062L2.99558 9.64062L2.47995 10.0703L1.96433 9.64062L0.589326 8.26562L1.62058 7.23438L2.47995 8.13672L4.71433 5.85938ZM7.97995 7.0625H16.9175V8.4375H7.97995V7.0625ZM4.71433 11.3594L5.74558 12.3906L2.99558 15.1406L2.47995 15.5703L1.96433 15.1406L0.589326 13.7656L1.62058 12.7344L2.47995 13.6367L4.71433 11.3594ZM7.97995 12.5625H16.9175V13.9375H7.97995V12.5625Z" fill="white"/>
</svg>
