<svg width="17" height="17" viewBox="0 0 17 17" fill="none" xmlns="http://www.w3.org/2000/svg">
<path d="M7.97995 0.5H9.35495V8.75H7.97995V0.5ZM5.91745 0.972656V2.47656C4.68568 2.99219 3.68308 3.82292 2.90964 4.96875C2.16485 6.11458 1.79245 7.375 1.79245 8.75C1.79245 10.6406 2.46563 12.2591 3.81198 13.6055C5.15834 14.9518 6.77683 15.625 8.66745 15.625C10.5581 15.625 12.1766 14.9518 13.5229 13.6055C14.8693 12.2591 15.5425 10.6406 15.5425 8.75C15.5425 7.375 15.1557 6.11458 14.3823 4.96875C13.6375 3.82292 12.6492 2.99219 11.4175 2.47656V0.972656C13.0503 1.54557 14.368 2.54818 15.3706 3.98047C16.4018 5.38411 16.9175 6.97396 16.9175 8.75C16.9175 11.013 16.101 12.9609 14.4682 14.5938C12.8641 16.1979 10.9305 17 8.66745 17C6.40443 17 4.45651 16.1979 2.8237 14.5938C1.21953 12.9609 0.417451 11.013 0.417451 8.75C0.417451 6.97396 0.918753 5.38411 1.92136 3.98047C2.95261 2.54818 4.28464 1.54557 5.91745 0.972656Z" fill="white"/>
</svg>
