<svg width="20" height="19" viewBox="0 0 20 19" fill="none" xmlns="http://www.w3.org/2000/svg">
<path d="M5.1987 0.1875C6.86016 0.1875 8.34974 0.860677 9.66745 2.20703C10.9852 0.860677 12.4747 0.1875 14.1362 0.1875C15.5685 0.1875 16.7859 0.703125 17.7885 1.73438C18.7911 2.73698 19.2925 3.9401 19.2925 5.34375C19.2925 5.91667 19.1492 6.50391 18.8628 7.10547C18.5763 7.67839 18.2898 8.10807 18.0034 8.39453L17.5737 8.78125L10.1831 16.2578L9.66745 16.7734L9.15183 16.2578L1.7612 8.78125C1.47474 8.52344 1.18828 8.19401 0.901826 7.79297C0.328909 6.93359 0.0424509 6.11719 0.0424509 5.34375C0.0424509 3.9401 0.543753 2.73698 1.54636 1.73438C2.54896 0.703125 3.76641 0.1875 5.1987 0.1875ZM5.1987 1.5625C4.16745 1.5625 3.27943 1.9349 2.53464 2.67969C1.78985 3.42448 1.41745 4.3125 1.41745 5.34375C1.41745 5.83073 1.61797 6.38932 2.01901 7.01953L2.70651 7.83594L9.66745 14.7969L16.6284 7.83594C17.4878 6.89062 17.9175 6.0599 17.9175 5.34375C17.9175 4.3125 17.5451 3.42448 16.8003 2.67969C16.0555 1.9349 15.1675 1.5625 14.1362 1.5625C13.5346 1.5625 12.9044 1.73438 12.2456 2.07812C11.5867 2.39323 11.0711 2.72266 10.6987 3.06641L10.1831 3.53906L9.66745 4.14062L9.15183 3.53906C9.0086 3.39583 8.80808 3.22396 8.55026 3.02344C8.3211 2.79427 7.84844 2.49349 7.13229 2.12109C6.44479 1.7487 5.80026 1.5625 5.1987 1.5625Z" fill="white"/>
</svg>
