<svg width="160" height="56" viewBox="0 0 160 56" fill="none" xmlns="http://www.w3.org/2000/svg">
<path d="M85.5172 28.5555C85.5078 26.957 86.232 25.7523 87.6945 24.8641C86.8766 23.6922 85.6391 23.0477 84.0078 22.9234C82.4633 22.8016 80.7734 23.8234 80.1547 23.8234C79.5008 23.8234 78.0055 22.9656 76.8289 22.9656C74.4008 23.0031 71.8203 24.9016 71.8203 28.7641C71.8203 29.9055 72.0289 31.0844 72.4461 32.2984C73.0039 33.8969 75.0148 37.8133 77.1125 37.75C78.2094 37.7242 78.9852 36.9719 80.4125 36.9719C81.7977 36.9719 82.5148 37.75 83.7383 37.75C85.8547 37.7195 87.6734 34.1594 88.2031 32.5563C85.3648 31.218 85.5172 28.6375 85.5172 28.5555V28.5555ZM83.0539 21.407C84.2422 19.9961 84.1344 18.7117 84.0992 18.25C83.0492 18.3109 81.8352 18.9648 81.1437 19.7688C80.382 20.6313 79.9344 21.6977 80.0305 22.9C81.1648 22.9867 82.2008 22.4031 83.0539 21.407V21.407Z" fill="#313131"/>
</svg>
