<svg width="14" height="16" viewBox="0 0 14 16" fill="none" xmlns="http://www.w3.org/2000/svg">
<path d="M3.58542 1.60547C4.53073 0.660156 5.66224 0.1875 6.97995 0.1875C8.29766 0.1875 9.42917 0.660156 10.3745 1.60547C11.3198 2.55078 11.7925 3.68229 11.7925 5C11.7925 5.80208 11.5919 6.5612 11.1909 7.27734C10.8185 7.99349 10.3029 8.56641 9.64401 8.99609C10.9044 9.54036 11.9214 10.3854 12.6948 11.5312C13.4682 12.6484 13.855 13.9089 13.855 15.3125H12.48C12.48 13.7943 11.9357 12.5052 10.8471 11.4453C9.78724 10.3568 8.49818 9.8125 6.97995 9.8125C5.46172 9.8125 4.15834 10.3568 3.06979 11.4453C2.0099 12.5052 1.47995 13.7943 1.47995 15.3125H0.104951C0.104951 13.9089 0.49167 12.6484 1.26511 11.5312C2.03854 10.3854 3.05547 9.54036 4.31589 8.99609C3.65703 8.56641 3.12709 7.99349 2.72604 7.27734C2.35365 6.5612 2.16745 5.80208 2.16745 5C2.16745 3.68229 2.64011 2.55078 3.58542 1.60547ZM9.3862 2.59375C8.72735 1.90625 7.92526 1.5625 6.97995 1.5625C6.03464 1.5625 5.21823 1.90625 4.53073 2.59375C3.87188 3.2526 3.54245 4.05469 3.54245 5C3.54245 5.94531 3.87188 6.76172 4.53073 7.44922C5.21823 8.10807 6.03464 8.4375 6.97995 8.4375C7.92526 8.4375 8.72735 8.10807 9.3862 7.44922C10.0737 6.76172 10.4175 5.94531 10.4175 5C10.4175 4.05469 10.0737 3.2526 9.3862 2.59375Z" fill="white"/>
</svg>
