<svg width="116" height="20" viewBox="0 0 116 20" fill="none" xmlns="http://www.w3.org/2000/svg">
<path d="M9.12679 1.5646C9.50828 0.881057 10.4917 0.881057 10.8732 1.5646L12.9309 5.25147C13.0739 5.50782 13.3224 5.68835 13.6104 5.7452L17.7527 6.56284C18.5207 6.71444 18.8246 7.64975 18.2924 8.22379L15.4218 11.32C15.2222 11.5353 15.1273 11.8274 15.1622 12.1189L15.6646 16.3111C15.7578 17.0884 14.9622 17.6664 14.2518 17.3376L10.42 15.5644C10.1536 15.4411 9.84643 15.4411 9.58001 15.5644L5.74824 17.3376C5.03783 17.6664 4.24221 17.0884 4.33535 16.3111L4.83776 12.1189C4.87269 11.8274 4.77778 11.5353 4.57819 11.32L1.70762 8.22379C1.17542 7.64975 1.47932 6.71444 2.24729 6.56285L6.38957 5.7452C6.67758 5.68835 6.92606 5.50782 7.06913 5.25147L9.12679 1.5646Z" fill="#F4DD0A"/>
<path d="M33.1268 1.5646C33.5083 0.881057 34.4917 0.881057 34.8732 1.5646L36.9309 5.25147C37.0739 5.50782 37.3224 5.68835 37.6104 5.7452L41.7527 6.56284C42.5207 6.71444 42.8246 7.64975 42.2924 8.22379L39.4218 11.32C39.2222 11.5353 39.1273 11.8274 39.1622 12.1189L39.6646 16.3111C39.7578 17.0884 38.9622 17.6664 38.2518 17.3376L34.42 15.5644C34.1536 15.4411 33.8464 15.4411 33.58 15.5644L29.7482 17.3376C29.0378 17.6664 28.2422 17.0884 28.3354 16.3111L28.8378 12.1189C28.8727 11.8274 28.7778 11.5353 28.5782 11.32L25.7076 8.22379C25.1754 7.64975 25.4793 6.71444 26.2473 6.56285L30.3896 5.7452C30.6776 5.68835 30.9261 5.50782 31.0691 5.25147L33.1268 1.5646Z" fill="#F4DD0A"/>
<path d="M57.1268 1.5646C57.5083 0.881057 58.4917 0.881057 58.8732 1.5646L60.9309 5.25147C61.0739 5.50782 61.3224 5.68835 61.6104 5.7452L65.7527 6.56284C66.5207 6.71444 66.8246 7.64975 66.2924 8.22379L63.4218 11.32C63.2222 11.5353 63.1273 11.8274 63.1622 12.1189L63.6646 16.3111C63.7578 17.0884 62.9622 17.6664 62.2518 17.3376L58.42 15.5644C58.1536 15.4411 57.8464 15.4411 57.58 15.5644L53.7482 17.3376C53.0378 17.6664 52.2422 17.0884 52.3354 16.3111L52.8378 12.1189C52.8727 11.8274 52.7778 11.5353 52.5782 11.32L49.7076 8.22379C49.1754 7.64975 49.4793 6.71444 50.2473 6.56285L54.3896 5.7452C54.6776 5.68835 54.9261 5.50782 55.0691 5.25147L57.1268 1.5646Z" fill="#F4DD0A"/>
<path d="M81.1268 1.5646C81.5083 0.881057 82.4917 0.881057 82.8732 1.5646L84.9309 5.25147C85.0739 5.50782 85.3224 5.68835 85.6104 5.7452L89.7527 6.56284C90.5207 6.71444 90.8246 7.64975 90.2924 8.22379L87.4218 11.32C87.2222 11.5353 87.1273 11.8274 87.1622 12.1189L87.6646 16.3111C87.7578 17.0884 86.9622 17.6664 86.2518 17.3376L82.42 15.5644C82.1536 15.4411 81.8464 15.4411 81.58 15.5644L77.7482 17.3376C77.0378 17.6664 76.2422 17.0884 76.3354 16.3111L76.8378 12.1189C76.8727 11.8274 76.7778 11.5353 76.5782 11.32L73.7076 8.22379C73.1754 7.64975 73.4793 6.71444 74.2473 6.56285L78.3896 5.7452C78.6776 5.68835 78.9261 5.50782 79.0691 5.25147L81.1268 1.5646Z" fill="#F4DD0A"/>
<path d="M106.437 1.80827L108.494 5.49514C108.709 5.87966 109.082 6.15046 109.514 6.23573L113.656 7.05338C114.04 7.12918 114.192 7.59683 113.926 7.88385L111.055 10.9801C110.756 11.303 110.613 11.7412 110.666 12.1784L111.168 16.3706C111.215 16.7592 110.817 17.0483 110.462 16.8839L106.63 15.1106C106.23 14.9257 105.77 14.9257 105.37 15.1106L101.538 16.8839C101.183 17.0483 100.785 16.7592 100.832 16.3706L101.334 12.1784C101.387 11.7412 101.244 11.303 100.945 10.9801L98.0743 7.88385C97.8082 7.59683 97.9601 7.12918 98.3441 7.05338L102.486 6.23573C102.918 6.15046 103.291 5.87966 103.506 5.49514L105.563 1.80827C105.754 1.4665 106.246 1.4665 106.437 1.80827Z" stroke="#F4DD0A"/>
<mask id="mask0_86_4203" style="mask-type:alpha" maskUnits="userSpaceOnUse" x="97" y="1" width="18" height="17">
<path d="M105.127 1.5646C105.508 0.881057 106.492 0.881057 106.873 1.5646L108.931 5.25147C109.074 5.50782 109.322 5.68835 109.61 5.7452L113.753 6.56284C114.521 6.71444 114.825 7.64975 114.292 8.22379L111.422 11.32C111.222 11.5353 111.127 11.8274 111.162 12.1189L111.665 16.3111C111.758 17.0884 110.962 17.6664 110.252 17.3376L106.42 15.5644C106.154 15.4411 105.846 15.4411 105.58 15.5644L101.748 17.3376C101.038 17.6664 100.242 17.0884 100.335 16.3111L100.838 12.1189C100.873 11.8274 100.778 11.5353 100.578 11.32L97.7076 8.22379C97.1754 7.64975 97.4793 6.71444 98.2473 6.56285L102.39 5.7452C102.678 5.68835 102.926 5.50782 103.069 5.25147L105.127 1.5646Z" fill="#F4DD0A"/>
</mask>
<g mask="url(#mask0_86_4203)">
<rect x="98" y="2" width="8" height="15" fill="#F4DD0A"/>
</g>
</svg>
