<svg width="48" height="14" viewBox="0 0 48 14" fill="none" xmlns="http://www.w3.org/2000/svg">
<path d="M18 1.66749C17.4905 2.4086 16.8999 3.01075 16.2283 3.47395V3.9603C16.2283 5.11828 16.0083 6.29363 15.5682 7.48635C15.1282 8.67907 14.4855 9.756 13.6402 10.7171C12.7949 11.6782 11.7469 12.4657 10.4963 13.0794C9.24565 13.6931 7.80976 14 6.18858 14C5.16956 14 4.20843 13.861 3.30521 13.5831C2.40198 13.3052 1.55665 12.9115 0.769226 12.402C0.908184 12.4251 1.04714 12.4425 1.1861 12.4541C1.32506 12.4657 1.46402 12.4715 1.60297 12.4715C2.43672 12.4715 3.22994 12.3325 3.98263 12.0546C4.73531 11.7767 5.41273 11.4061 6.01488 10.9429C5.22746 10.9198 4.53846 10.6824 3.94789 10.2308C3.35732 9.77916 2.94623 9.19438 2.71464 8.47643C2.83043 8.52275 2.94044 8.54591 3.04466 8.54591H3.37469C3.69892 8.54591 4 8.51117 4.27791 8.44169C3.46732 8.25641 2.79569 7.84533 2.26302 7.20844C1.73035 6.57155 1.46402 5.82465 1.46402 4.96774V4.933C1.71877 5.0488 1.97353 5.14723 2.22828 5.22829C2.48304 5.30935 2.76095 5.34988 3.06203 5.34988C2.59884 5.02564 2.22249 4.60877 1.933 4.09926C1.6435 3.58974 1.49875 3.03391 1.49875 2.43176C1.49875 1.78329 1.66087 1.19272 1.98511 0.66005C2.86517 1.72539 3.93052 2.58809 5.18114 3.24814C6.43176 3.90819 7.7866 4.27295 9.24565 4.34243C9.17617 4.06452 9.14144 3.79818 9.14144 3.54342C9.14144 3.05707 9.23407 2.59967 9.41935 2.17122C9.60463 1.74276 9.85938 1.36642 10.1836 1.04218C10.5079 0.717949 10.8842 0.463193 11.3127 0.277916C11.7411 0.0926385 12.1985 0 12.6849 0C13.1944 0 13.6691 0.0984285 14.1092 0.295285C14.5492 0.492142 14.9313 0.764268 15.2556 1.11166C15.6725 1.04218 16.0662 0.932175 16.4367 0.781638C16.8073 0.6311 17.1662 0.451613 17.5136 0.243176C17.2357 1.10008 16.7146 1.76013 15.9504 2.22333C16.6915 2.10753 17.3747 1.92225 18 1.66749Z" fill="#1E1E2F"/>
<path d="M44.5042 0C44.9837 0 45.4353 0.0919952 45.859 0.275986C46.2828 0.459976 46.6535 0.710872 46.9713 1.02867C47.2891 1.34648 47.54 1.71724 47.724 2.14098C47.908 2.56472 48 3.01633 48 3.49582V10.4875C48 10.9669 47.908 11.4213 47.724 11.8507C47.54 12.28 47.2891 12.6535 46.9713 12.9713C46.6535 13.2891 46.2828 13.54 45.859 13.724C45.4353 13.908 44.9837 14 44.5042 14H37.4958C37.0163 14 36.5647 13.908 36.141 13.724C35.7172 13.54 35.3465 13.2891 35.0287 12.9713C34.7109 12.6535 34.46 12.28 34.276 11.8507C34.092 11.4213 34 10.9669 34 10.4875V3.49582C34 3.01633 34.092 2.56472 34.276 2.14098C34.46 1.71724 34.7109 1.34648 35.0287 1.02867C35.3465 0.710872 35.7172 0.459976 36.141 0.275986C36.5647 0.0919952 37.0163 0 37.4958 0H44.5042ZM43.6177 3.06093H42.1458C41.8558 3.06093 41.5882 3.11111 41.3429 3.21147C41.0976 3.31183 40.8857 3.44285 40.7073 3.60454C40.5289 3.76623 40.3867 3.95301 40.2808 4.16487C40.1748 4.37674 40.1219 4.58861 40.1219 4.80048V5.68698H38.8172V7.42652H40.1219V10.9391H41.8781V7.42652H43.1828V5.68698H41.8781V5.25209C41.8781 5.10713 41.9311 4.99562 42.037 4.91756C42.143 4.83951 42.235 4.80048 42.313 4.80048H43.6177V3.06093Z" fill="#1E1E2F"/>
</svg>
