<svg width="48" height="48" viewBox="0 0 48 48" fill="none" xmlns="http://www.w3.org/2000/svg">
<path d="M32.25 33C32.1515 33.0002 32.0539 32.9808 31.9629 32.9431C31.872 32.9054 31.7893 32.85 31.7198 32.7802L15.2198 16.2802C15.0851 16.1384 15.0111 15.9495 15.0136 15.754C15.0161 15.5584 15.0949 15.3715 15.2333 15.2332C15.3716 15.0949 15.5584 15.0161 15.754 15.0136C15.9496 15.0111 16.1384 15.0851 16.2802 15.2198L32.7802 31.7198C32.885 31.8247 32.9564 31.9583 32.9853 32.1038C33.0142 32.2492 32.9993 32.4 32.9426 32.537C32.8858 32.674 32.7898 32.7911 32.6665 32.8735C32.5432 32.9559 32.3983 32.9999 32.25 33V33ZM23.625 26.8055L21.1973 24.3778C21.1834 24.364 21.1656 24.3549 21.1462 24.3518C21.1269 24.3487 21.107 24.3517 21.0895 24.3605C21.072 24.3692 21.0576 24.3832 21.0485 24.4006C21.0393 24.4179 21.0358 24.4376 21.0384 24.457C21.1364 25.0869 21.4322 25.6692 21.8829 26.1199C22.3336 26.5706 22.916 26.8664 23.5458 26.9644C23.5652 26.967 23.5849 26.9635 23.6023 26.9544C23.6196 26.9452 23.6336 26.9308 23.6423 26.9133C23.6511 26.8958 23.6541 26.8759 23.651 26.8566C23.6479 26.8373 23.6388 26.8194 23.625 26.8055ZM24.375 21.1945L26.8064 23.625C26.8203 23.639 26.8382 23.6483 26.8577 23.6515C26.8771 23.6547 26.8971 23.6517 26.9147 23.6429C26.9323 23.6342 26.9468 23.6201 26.9559 23.6026C26.9651 23.5852 26.9686 23.5653 26.9658 23.5458C26.868 22.9151 26.5721 22.3319 26.1208 21.8806C25.6695 21.4293 25.0863 21.1334 24.4556 21.0356C24.4361 21.0326 24.4161 21.0358 24.3985 21.0449C24.381 21.0539 24.3667 21.0682 24.3577 21.0859C24.3488 21.1035 24.3456 21.1235 24.3487 21.143C24.3518 21.1625 24.361 21.1806 24.375 21.1945V21.1945Z" fill="#313131"/>
<path d="M35.0156 24.8137C35.1708 24.5702 35.2529 24.2872 35.252 23.9984C35.2512 23.7096 35.1675 23.4271 35.0109 23.1844C33.7706 21.2663 32.1614 19.6369 30.3577 18.472C28.3594 17.182 26.1562 16.5 23.985 16.5C22.8404 16.5016 21.7035 16.6882 20.6184 17.0527C20.5881 17.0628 20.5608 17.0805 20.5392 17.1041C20.5176 17.1277 20.5024 17.1565 20.4951 17.1876C20.4878 17.2188 20.4885 17.2513 20.4973 17.2821C20.5061 17.3128 20.5226 17.3409 20.5453 17.3634L22.7597 19.5778C22.7827 19.6009 22.8113 19.6175 22.8427 19.6261C22.8741 19.6348 22.9072 19.6351 22.9387 19.627C23.6893 19.4441 24.4744 19.4575 25.2183 19.666C25.9622 19.8744 26.6399 20.2708 27.1862 20.8171C27.7325 21.3634 28.1289 22.0411 28.3373 22.785C28.5458 23.5289 28.5592 24.3139 28.3762 25.0645C28.3683 25.096 28.3686 25.129 28.3773 25.1603C28.3859 25.1916 28.4025 25.2202 28.4255 25.2431L31.6106 28.4306C31.6438 28.4638 31.6881 28.4834 31.735 28.4855C31.7819 28.4876 31.8278 28.472 31.8637 28.4419C33.0898 27.3968 34.1522 26.1739 35.0156 24.8137ZM24 28.5C23.3188 28.5 22.6465 28.3454 22.0337 28.0478C21.4209 27.7502 20.8837 27.3173 20.4626 26.7819C20.0415 26.2464 19.7474 25.6223 19.6026 24.9567C19.4578 24.2911 19.466 23.6012 19.6266 22.9392C19.6345 22.9077 19.6342 22.8747 19.6255 22.8434C19.6169 22.8121 19.6003 22.7836 19.5773 22.7606L16.4442 19.6261C16.411 19.5928 16.3665 19.5733 16.3195 19.5713C16.2726 19.5693 16.2265 19.585 16.1906 19.6153C15.0473 20.5908 13.9875 21.7777 13.0186 23.1647C12.849 23.4081 12.7556 23.6965 12.7502 23.9931C12.7449 24.2897 12.8279 24.5813 12.9886 24.8306C14.2266 26.768 15.8194 28.3997 17.5955 29.5486C19.5966 30.8437 21.7462 31.5 23.985 31.5C25.1412 31.4969 26.2899 31.3143 27.39 30.9586C27.4206 30.9488 27.4482 30.9313 27.4702 30.9078C27.4921 30.8842 27.5076 30.8554 27.5152 30.8242C27.5227 30.7929 27.5222 30.7602 27.5134 30.7293C27.5047 30.6983 27.4882 30.6701 27.4655 30.6473L25.2403 28.4227C25.2174 28.3997 25.1888 28.3831 25.1575 28.3744C25.1262 28.3658 25.0932 28.3655 25.0617 28.3734C24.7141 28.4577 24.3577 28.5002 24 28.5V28.5Z" fill="#313131"/>
</svg>
